<svg xmlns="http://www.w3.org/2000/svg" viewBox="0 0 2266.14 359.71"><defs><style>.cls-1{fill:#fff;}</style></defs><g id="Calque_2" data-name="Calque 2"><g id="Calque_1-2" data-name="Calque 1"><g id="Calque_2-2" data-name="Calque 2"><g id="Calque_1-2-2" data-name="Calque 1-2"><path class="cls-1" d="M344.62,292.71,184.56,351.06C113.51,377,34.18,340,8.28,269h0c-25.9-71.05,11-150.37,82.09-176.27L344.62,0"/><path class="cls-1" d="M360.62,67,520.69,8.64c71-25.9,150.38,11,176.28,82.09h0c25.9,71.05-11,150.38-82.09,176.28l-254.26,92.7"/></g></g><path class="cls-1" d="M762.26,227.35V122.14h66.83q29.49,0,46.45,13.26t17,37.56q0,24.45-17.78,39.42t-46.23,15Zm29.93-20.3h32.45q16.9,0,26.53-8.89t9.63-24.6q0-15.12-9.85-23.12t-26.46-8h-32.3Z"/><path class="cls-1" d="M1013,192.38v4.15H930.44q1.63,7.54,9.26,11.63t20.08,4.07a46.48,46.48,0,0,0,16.75-2.89,26.69,26.69,0,0,0,11.7-8.07l21.93,9.48Q994,230.16,958.6,230.16q-26.24,0-41-10.45T902.88,190.6q0-18.82,14.89-29.49t40.09-10.67q26.07,0,40.6,11.11T1013,192.38Zm-82.69-10.67h54.24q-.3-7-7.71-11.41t-19.11-4.45q-11.57,0-18.82,4.3T930.29,181.71Z"/><path class="cls-1" d="M1055.21,227.35l-43.12-74.09h31.27l23.71,43.86q2.36,4.44,4,8.44h.74a89.85,89.85,0,0,1,4-8.44l23.71-43.86h31.26l-43.12,74.09Z"/><path class="cls-1" d="M1183.53,230.16q-39.26,0-57.49-17.48l13.78-13q15,13.63,46.38,13.63,9.93,0,14.23-1.63c2.86-1.09,4.3-2.86,4.3-5.34a4.52,4.52,0,0,0-2.15-4.14c-1.44-.89-4-1.49-7.78-1.78l-32-2.67q-16.15-1.49-23.78-7t-7.64-15.78q0-24.45,47.87-24.45,32.9,0,50.23,13.34l-11.41,13.48Q1203.54,167,1176.72,167q-19.11,0-19.12,6.37a4.31,4.31,0,0,0,2.37,4q2.37,1.34,8,1.78l32.6,2.52q16.14,1.33,23.33,6.59t7.19,15.49Q1231.1,230.16,1183.53,230.16Z"/><path class="cls-1" d="M1347.57,227.35l-9.63-21.19h-58.53l-9.63,21.19h-32.31l52.46-105.21h37.49l52.46,105.21Zm-59.27-40.46h40.75l-10.37-22.67q-7.71-16-9.78-24.3h-.45q-2.07,8.29-9.78,24.3Z"/><path class="cls-1" d="M1418.55,175.19a31.26,31.26,0,0,1,12.08-17.41q9-6.45,21.7-6.45a69.73,69.73,0,0,1,9.78.74v24.3a65,65,0,0,0-11.85-1.18q-13.48,0-20.3,6.81-7.86,7.26-7.85,21.34v24h-28.6V153.26h25Z"/><path class="cls-1" d="M1577.1,192.38v4.15h-82.53q1.62,7.54,9.26,11.63t20.08,4.07a46.47,46.47,0,0,0,16.74-2.89,26.78,26.78,0,0,0,11.71-8.07l21.93,9.48q-16.15,19.41-51.57,19.41-26.22,0-41-10.45T1467,190.6q0-18.82,14.9-29.49T1522,150.44q26.08,0,40.6,11.11T1577.1,192.38Zm-82.68-10.67h54.23q-.3-7-7.7-11.41t-19.12-4.45q-11.55,0-18.82,4.3T1494.42,181.71Z"/><path class="cls-1" d="M1646,231.05q-28.46,0-45.13-15.41t-16.67-39.71q0-25.2,19-41.35t50.9-16.15q24.88,0,42.23,9.26T1718.47,153L1686,158.29q-3-8.14-11.4-13.11t-21.34-5q-17.79,0-27.71,9.48t-9.93,25.93q0,15.7,10.07,25t27.86,9.34q16.31,0,26.23-6.52t10.67-15.86v-.44h-39.71V168.67h67.57v58.68h-23L1694,209.27q-5.64,9.33-17.56,15.56T1646,231.05Z"/><path class="cls-1" d="M1842.2,192.38v4.15h-82.54q1.62,7.54,9.26,11.63t20.08,4.07a46.47,46.47,0,0,0,16.74-2.89,26.78,26.78,0,0,0,11.71-8.07l21.93,9.48q-16.16,19.41-51.57,19.41-26.22,0-41-10.45T1732.1,190.6q0-18.82,14.89-29.49t40.08-10.67q26.09,0,40.6,11.11T1842.2,192.38Zm-82.69-10.67h54.23q-.3-7-7.7-11.41t-19.12-4.45q-11.55,0-18.82,4.3T1759.51,181.71Z"/><path class="cls-1" d="M1858.35,227.35V153.26h28v17.19q10.67-20,39.42-20,20.3,0,30.89,10.67t10.6,31.12v35.12h-28.6V196.53q0-25.64-24.45-25.64-13,0-20.15,6.74T1887,196.82v30.53Z"/><path class="cls-1" d="M1988.15,142.29V119.62h30.23v22.67Zm.74,85.06V153.26h28.6v74.09Z"/><path class="cls-1" d="M2079.28,230.16q-19.11,0-29.63-9.48t-10.52-27.27V153.26h28.6V186.6q0,12.43,6.14,18.07t16.67,5.64q13.35,0,20.38-7.34a25.4,25.4,0,0,0,7-18.3V153.26h28.6v74.09H2118.4V210a32.47,32.47,0,0,1-15.26,15A53.3,53.3,0,0,1,2079.28,230.16Z"/><path class="cls-1" d="M2218.57,230.16q-39.27,0-57.49-17.48l13.78-13q15,13.63,46.38,13.63,9.93,0,14.22-1.63c2.87-1.09,4.3-2.86,4.3-5.34a4.52,4.52,0,0,0-2.15-4.14c-1.43-.89-4-1.49-7.78-1.78l-32-2.67q-16.15-1.49-23.79-7t-7.63-15.78q0-24.45,47.87-24.45,32.89,0,50.23,13.34l-11.41,13.48Q2238.58,167,2211.76,167q-19.12,0-19.12,6.37a4.31,4.31,0,0,0,2.37,4q2.37,1.34,8,1.78l32.6,2.52q16.16,1.33,23.34,6.59t7.19,15.49Q2266.14,230.16,2218.57,230.16Z"/></g></g></svg>