<?xml version="1.0" encoding="utf-8"?>
<!-- Generator: Adobe Illustrator 24.1.0, SVG Export Plug-In . SVG Version: 6.00 Build 0)  -->
<svg version="1.1" id="Calque_1" xmlns="http://www.w3.org/2000/svg" xmlns:xlink="http://www.w3.org/1999/xlink" x="0px" y="0px"
	 viewBox="0 0 2266.1 359.7" style="enable-background:new 0 0 2266.1 359.7;" xml:space="preserve">
<g id="Calque_2_1_">
	<g id="Calque_1-2">
		<g id="Calque_2-2">
			<g id="Calque_1-2-2">
				<path d="M344.6,292.7l-160.1,58.4C113.5,377,34.2,340,8.3,269l0,0c-25.9-71.1,11-150.4,82.1-176.3L344.6,0"/>
				<path d="M360.6,67L520.7,8.6c71-25.9,150.4,11,176.3,82.1l0,0c25.9,71.1-11,150.4-82.1,176.3l-254.3,92.7"/>
			</g>
		</g>
		<path d="M762.3,227.4V122.1h66.8c19.7,0,35.1,4.4,46.5,13.3s17,21.4,17,37.6c0,16.3-5.9,29.4-17.8,39.4c-11.9,10-27.3,15-46.2,15
			L762.3,227.4z M792.2,207.1h32.5c11.3,0,20.1-3,26.5-8.9c6.4-5.9,9.6-14.1,9.6-24.6c0-10.1-3.3-17.8-9.8-23.1
			c-6.6-5.3-15.4-8-26.5-8h-32.3L792.2,207.1z"/>
		<path d="M1013,192.4v4.1h-82.6c1.1,5,4.2,8.9,9.3,11.6s11.8,4.1,20.1,4.1c5.7,0.1,11.4-0.9,16.8-2.9c4.6-1.6,8.6-4.4,11.7-8.1
			l21.9,9.5c-10.8,12.9-28,19.4-51.6,19.4c-17.5,0-31.2-3.5-41-10.4c-9.8-7-14.7-16.7-14.7-29.1c0-12.5,5-22.4,14.9-29.5
			c9.9-7.1,23.3-10.7,40.1-10.7c17.4,0,30.9,3.7,40.6,11.1C1008.1,169,1013,179.2,1013,192.4z M930.3,181.7h54.2
			c-0.2-4.7-2.8-8.5-7.7-11.4c-4.9-2.9-11.3-4.4-19.1-4.4c-7.7,0-14,1.4-18.8,4.3C934.1,173,931.2,176.9,930.3,181.7L930.3,181.7z"
			/>
		<path d="M1055.2,227.4l-43.1-74.1h31.3l23.7,43.9c1.6,3,2.9,5.8,4,8.4h0.7c1.2-2.9,2.5-5.7,4-8.4l23.7-43.9h31.3l-43.1,74.1
			H1055.2z"/>
		<path d="M1183.5,230.2c-26.2,0-45.3-5.8-57.5-17.5l13.8-13c10,9.1,25.5,13.6,46.4,13.6c6.6,0,11.4-0.5,14.2-1.6
			c2.9-1.1,4.3-2.9,4.3-5.3c0.1-1.7-0.7-3.3-2.2-4.1c-1.4-0.9-4-1.5-7.8-1.8l-32-2.7c-10.8-1-18.7-3.3-23.8-7
			c-5.1-3.7-7.6-8.9-7.6-15.8c0-16.3,16-24.4,47.9-24.4c21.9,0,38.7,4.4,50.2,13.3l-11.4,13.5c-9.7-6.9-23.5-10.3-41.3-10.3
			c-12.7,0-19.1,2.1-19.1,6.4c-0.1,1.7,0.9,3.2,2.4,4c1.6,0.9,4.2,1.5,8,1.8l32.6,2.5c10.8,0.9,18.5,3.1,23.3,6.6
			c4.8,3.5,7.2,8.7,7.2,15.5C1231.1,221.4,1215.2,230.2,1183.5,230.2z"/>
		<path d="M1347.6,227.4l-9.6-21.2h-58.5l-9.6,21.2h-32.3l52.5-105.2h37.5l52.5,105.2H1347.6z M1288.3,186.9h40.8l-10.4-22.7
			c-5.1-10.7-8.4-18.8-9.8-24.3h-0.4c-1.4,5.5-4.6,13.6-9.8,24.3L1288.3,186.9z"/>
		<path d="M1418.6,175.2c1.9-7,6.1-13.2,12.1-17.4c6-4.3,13.2-6.4,21.7-6.4c3.3,0,6.5,0.3,9.8,0.7v24.3c-3.9-0.8-7.9-1.2-11.8-1.2
			c-9,0-15.8,2.3-20.3,6.8c-5.2,4.8-7.9,12-7.8,21.3v24h-28.6v-74.1h25L1418.6,175.2z"/>
		<path d="M1577.1,192.4v4.1h-82.5c1.1,5,4.2,8.9,9.3,11.6c5.1,2.7,11.8,4.1,20.1,4.1c5.7,0.1,11.4-0.9,16.7-2.9
			c4.6-1.6,8.6-4.4,11.7-8.1l21.9,9.5c-10.8,12.9-28,19.4-51.6,19.4c-17.5,0-31.1-3.5-41-10.4c-9.9-7-14.8-16.7-14.7-29.1
			c0-12.5,5-22.4,14.9-29.5c9.9-7.1,23.3-10.7,40.1-10.7c17.4,0,30.9,3.7,40.6,11.1C1572.3,169,1577.1,179.2,1577.1,192.4z
			 M1494.4,181.7h54.2c-0.2-4.7-2.8-8.5-7.7-11.4c-4.9-2.9-11.3-4.4-19.1-4.4c-7.7,0-14,1.4-18.8,4.3S1495.3,176.9,1494.4,181.7
			L1494.4,181.7z"/>
		<path d="M1646,231.1c-19,0-34-5.1-45.1-15.4c-11.1-10.3-16.7-23.5-16.7-39.7c0-16.8,6.3-30.6,19-41.4
			c12.7-10.8,29.6-16.2,50.9-16.2c16.6,0,30.7,3.1,42.2,9.3c11.6,6.2,18.9,14.6,22.1,25.3l-32.5,5.3c-2-5.4-5.8-9.8-11.4-13.1
			c-5.6-3.3-12.7-5-21.3-5c-11.9,0-21.1,3.2-27.7,9.5c-6.6,6.3-9.9,15-9.9,25.9c0,10.5,3.4,18.8,10.1,25s16,9.3,27.9,9.3
			c10.9,0,19.6-2.2,26.2-6.5c6.6-4.3,10.2-9.6,10.7-15.9v-0.4h-39.7v-18.4h67.6v58.7h-23l-1.3-18.1c-3.8,6.2-9.6,11.4-17.6,15.6
			C1668.5,229,1658.3,231.1,1646,231.1z"/>
		<path d="M1842.2,192.4v4.1h-82.5c1.1,5,4.2,8.9,9.3,11.6s11.8,4.1,20.1,4.1c5.7,0.1,11.4-0.9,16.7-2.9c4.6-1.6,8.6-4.4,11.7-8.1
			l21.9,9.5c-10.8,12.9-28,19.4-51.6,19.4c-17.5,0-31.1-3.5-41-10.4c-9.9-7-14.8-16.7-14.7-29.1c0-12.5,5-22.4,14.9-29.5
			c9.9-7.1,23.3-10.7,40.1-10.7c17.4,0,30.9,3.7,40.6,11.1C1837.3,169,1842.2,179.2,1842.2,192.4z M1759.5,181.7h54.2
			c-0.2-4.7-2.8-8.5-7.7-11.4s-11.3-4.4-19.1-4.4c-7.7,0-14,1.4-18.8,4.3S1760.4,176.9,1759.5,181.7z"/>
		<path d="M1858.3,227.4v-74.1h28v17.2c7.1-13.3,20.3-20,39.4-20c13.5,0,23.8,3.6,30.9,10.7c7.1,7.1,10.6,17.5,10.6,31.1v35.1h-28.6
			v-30.8c0-17.1-8.1-25.6-24.4-25.6c-8.7,0-15.4,2.2-20.2,6.7s-7.1,10.9-7.1,19.2v30.5H1858.3z"/>
		<path d="M1988.2,142.3v-22.7h30.2v22.7L1988.2,142.3z M1988.9,227.3v-74.1h28.6v74.1H1988.9z"/>
		<path d="M2079.3,230.2c-12.7,0-22.6-3.2-29.6-9.5c-7-6.3-10.5-15.4-10.5-27.3v-40.2h28.6v33.3c0,8.3,2,14.3,6.1,18.1
			c4.1,3.8,9.6,5.6,16.7,5.6c8.9,0,15.7-2.4,20.4-7.3c4.7-4.9,7.2-11.5,7-18.3v-31.4h28.6v74.1h-28.1V210c-3.2,6.6-8.6,11.9-15.3,15
			C2095.7,228.5,2087.5,230.3,2079.3,230.2z"/>
		<path d="M2218.6,230.2c-26.2,0-45.3-5.8-57.5-17.5l13.8-13c10,9.1,25.5,13.6,46.4,13.6c6.6,0,11.4-0.5,14.2-1.6
			c2.9-1.1,4.3-2.9,4.3-5.3c0.1-1.7-0.7-3.3-2.1-4.1c-1.4-0.9-4-1.5-7.8-1.8l-32-2.7c-10.8-1-18.7-3.3-23.8-7
			c-5.1-3.7-7.6-8.9-7.6-15.8c0-16.3,16-24.4,47.9-24.4c21.9,0,38.7,4.4,50.2,13.3l-11.4,13.5c-9.7-6.9-23.5-10.3-41.3-10.3
			c-12.7,0-19.1,2.1-19.1,6.4c-0.1,1.7,0.9,3.2,2.4,4c1.6,0.9,4.2,1.5,8,1.8l32.6,2.5c10.8,0.9,18.6,3.1,23.3,6.6
			c4.8,3.5,7.2,8.7,7.2,15.5C2266.1,221.4,2250.3,230.2,2218.6,230.2z"/>
	</g>
</g>
</svg>
