<svg xmlns="http://www.w3.org/2000/svg" xmlns:xlink="http://www.w3.org/1999/xlink" viewBox="0 0 1208.61 278.12"><defs><style>.cls-1{fill:#554494;}.cls-2{fill:url(#Dégradé_sans_nom_13);}</style><linearGradient id="Dégradé_sans_nom_13" x1="304.82" y1="135.2" x2="1208.61" y2="135.2" gradientUnits="userSpaceOnUse"><stop offset="0" stop-color="#554494"/><stop offset="0.27" stop-color="#632bb8"/><stop offset="0.58" stop-color="#6f14d9"/><stop offset="0.83" stop-color="#7705ee"/><stop offset="1" stop-color="#7a00f5"/></linearGradient></defs><g id="Calque_2" data-name="Calque 2"><g id="Calque_1-2" data-name="Calque 1"><path class="cls-1" d="M245.76,78.66V199.44a18.29,18.29,0,0,1-9.14,15.85L132,275.68a18.37,18.37,0,0,1-18.29,0L9.15,215.29A18.28,18.28,0,0,1,0,199.44V78.66A18.25,18.25,0,0,1,9.15,62.84L113.74,2.45a18.3,18.3,0,0,1,18.29,0l16.34,9.46L60.92,62.39l0,.07L36.59,76.53a22.08,22.08,0,0,0-11,19.06v87a22.11,22.11,0,0,0,11,19.06L48,208.2,95.3,235.5l18.47,10.65a18.36,18.36,0,0,0,18.4,0l52.68-30.38,0-.06,24.4-14.07a22.09,22.09,0,0,0,11-19.06V91.15a14.33,14.33,0,0,0-21.5-12.39L178,90.66l.07,0L108.32,131a19,19,0,0,0,.42,32.82l26.08,14.66a17.17,17.17,0,0,1-.24-29.78l49.53-29a5.5,5.5,0,0,1,8.28,4.75v42.07a22.08,22.08,0,0,1-11,19.06L133.91,213a22,22,0,0,1-22,0L64.37,185.55a22.05,22.05,0,0,1-11-19.06V111.61a22,22,0,0,1,2.93-11,22.19,22.19,0,0,1,8-8.07l0-.07L150.56,42.7l-.1-.07,25.59-14.77,60.57,35A18.26,18.26,0,0,1,245.76,78.66Z"/><path class="cls-2" d="M351.43,177.67q-21.46,0-34-11.62t-12.58-30q0-19,14.36-31.18t38.39-12.19q18.78,0,31.85,7t16.66,19l-24.48,4a18.85,18.85,0,0,0-8.6-9.89q-6.37-3.75-16.1-3.75-13.41,0-20.9,7.16t-7.48,19.55q0,11.85,7.6,18.89t21,7q12.28,0,19.78-4.92t8-11.95v-.34H355v-14h51v44.26H388.64l-1-13.64q-4.26,7-13.25,11.74T351.43,177.67Z"/><path class="cls-2" d="M419.37,95.53h22.69V137q0,10.39,6.26,16.65t17.77,6.26q11.18,0,17.55-6.31T490,137V95.53h22.57v43.81q0,17.55-12.18,27.94t-34.31,10.39q-22.12,0-34.42-10.5t-12.3-28.06Z"/><path class="cls-2" d="M530,174.88V95.53h33.75l20.45,48.06a71.77,71.77,0,0,1,2.68,8.49h.23a58.46,58.46,0,0,1,2.79-8.72l20.23-47.83h34.64v79.35H624V124.47a78.19,78.19,0,0,1,1.11-13.63h-.44a95.84,95.84,0,0,1-4.81,12.85l-22.8,51.19H575.84L553.71,123.8a119.73,119.73,0,0,1-4.25-13h-.56a75.29,75.29,0,0,1,.9,13.63v50.41Z"/><path class="cls-2" d="M738.67,133.19q17.66,2.69,17.66,19.11a20.63,20.63,0,0,1-7.27,16.15q-7.26,6.44-22.68,6.43H665.24V95.53h60.69q14.19,0,21.29,5.53a17.61,17.61,0,0,1,7.1,14.59,17,17,0,0,1-4,11.17Q746.38,131.64,738.67,133.19Zm-18.89-22.91h-32V127.6h32q11.18,0,11.18-9.16Q731,110.28,719.78,110.28Zm1,49.85q6.15,0,9.16-2.69a8.8,8.8,0,0,0,3-6.93,8.33,8.33,0,0,0-3-6.76q-3-2.5-9.16-2.51h-33v18.89Z"/><path class="cls-2" d="M835.79,174.88l-18.89-28H794v28H771.42V95.53h54.09a50.74,50.74,0,0,1,15.81,2.18,24.44,24.44,0,0,1,10.23,5.92,24,24,0,0,1,5.19,8,25.61,25.61,0,0,1-2.62,23.08q-4.25,6.54-13.52,9.56l20.67,30.62ZM794,110.62v21.79h26.38q7.49,0,10.78-3.13a10.47,10.47,0,0,0,3.3-7.94,10,10,0,0,0-3.3-7.71q-3.3-3-10.78-3Z"/><path class="cls-2" d="M950.12,174.88l-7.27-16H898.71l-7.27,16H867.08l39.56-79.35h28.28l39.56,79.35Zm-44.71-30.51h30.74l-7.83-17.1q-5.8-12.08-7.37-18.33h-.34q-1.56,6.25-7.37,18.33Z"/><path class="cls-2" d="M1008.46,174.88H985.88V95.53h22.58Z"/><path class="cls-2" d="M1068.69,177.67q-17.43,0-30.62-5.42t-19.33-14.92L1034.83,146A34.84,34.84,0,0,0,1049,157.5a49.07,49.07,0,0,0,20.79,4.19q21.12,0,21.12-9.28a5.9,5.9,0,0,0-2.85-5.42q-2.85-1.73-9.89-2.51l-24.36-2.68q-14.64-1.58-21.74-7.32t-7.1-16.6q0-11.85,11.18-18.5t31.4-6.65q31,0,45.6,16.43l-14.3,12q-9.28-12.63-32.41-12.63-18.9,0-18.89,8.38a5.65,5.65,0,0,0,2.9,5.26c1.94,1.11,5.44,1.94,10.51,2.46l21.79,2.23q16.55,1.68,23.75,7t7.21,16.32q0,13.19-11.73,20.34T1068.69,177.67Z"/><path class="cls-2" d="M1150.28,159h58.33v15.87H1127.7V95.53h80.13V111.4h-57.55v15.87h55.65V142h-55.65Z"/></g></g></svg>