<svg xmlns="http://www.w3.org/2000/svg" viewBox="0 0 318 181.9"><defs><style>.cls-1{stroke:#000;stroke-miterlimit:10;}</style></defs><g id="Calque_2" data-name="Calque 2"><g id="Texte"><path class="cls-1" d="M85.09,181.4H53.75L33.52,165q-5.21-4.19-8-6.52c-1.84-1.55-3.32-2.86-4.46-3.91.07,1.43.14,2.9.2,4.42s.1,3,.1,4.52v17.9H.58V119.05H21.4v14.44c0,1.93,0,3.82-.1,5.69s-.16,3.6-.3,5.22q2-1.68,4.86-4.15t7.46-6l19.33-15.19h30L57.05,136.94c-2.2,1.56-4.15,2.92-5.86,4.1s-3.22,2.21-4.55,3.08-2.56,1.65-3.66,2.33-2.18,1.33-3.25,2q2.9,1.86,7,4.66t10.61,7.73Z"/><path class="cls-1" d="M176.61,165.37l-13.32,16H98.81V119.05h77.6L163,135.26H119.63v7.46h53.08l-11.92,14.17H119.63v8.48Z"/><path class="cls-1" d="M279.05,142.44a20.32,20.32,0,0,1-2.2,9.46,20.09,20.09,0,0,1-6.46,7.22A33.36,33.36,0,0,1,260,163.78a52.57,52.57,0,0,1-13.92,1.68h-35V181.4H190.43V149.52h57.68q4.8,0,7.46-2a6.2,6.2,0,0,0,2.65-5.22,6.08,6.08,0,0,0-2.65-5.18q-2.65-1.9-7.46-1.91H190.43l13.72-16.21h42a51.28,51.28,0,0,1,13.92,1.72,32.22,32.22,0,0,1,10.32,4.8,21.05,21.05,0,0,1,6.41,7.36A20.61,20.61,0,0,1,279.05,142.44Z"/><path class="cls-1" d="M317.5,181.4H296.77V119.05H317.5Z"/></g><g id="Visière"><path d="M317.35,95.63v9.14H252.81C250.42,62.63,225.56,26,189.15,5.2q-4.64-2.65-9.51-5H222A95.39,95.39,0,0,1,317.35,95.63Z"/></g><g id="Chapeau"><path d="M237,104.53H0C2.47,61.06,31.94,24.25,73.08,8.38a127.46,127.46,0,0,1,81.25-3.25A123.26,123.26,0,0,1,168,10.05a122,122,0,0,1,12.59,6.27C212.84,34.78,234.87,67.2,237,104.53Z"/></g></g></svg>