<svg xmlns="http://www.w3.org/2000/svg" viewBox="0 0 460 460"><defs><style>.cls-1{fill:#e6e5e5;}.cls-2{fill:#006de5;}.cls-3{fill:#ececec;}.cls-4{fill:#fefefe;}.cls-5{fill:#224062;}.cls-6{fill:#fe5a10;}.cls-7{fill:#444;}</style></defs><g id="Calque_2" data-name="Calque 2"><g id="Calque_1-2" data-name="Calque 1"><path class="cls-1" d="M390.84,169.73c-23.9-3-45.72-11-63.41-28.15-16.51-16-24.54-35.48-24.31-58.42-11.8-11.75-19.28-25.94-23.34-41.95a173.43,173.43,0,0,1-3.95-25.34c.18-2.44.43-4.89.79-7.34-.12-2.89.55-5.93-1.58-8.45H122.14c-1.68,3.53,1.11,6,2.29,8.69,8.42,19.52,8.68,39,0,58.49C115.33,87.69,100.23,103,82,115.14,61.8,128.6,40.12,132.2,17.12,122.3c-4.33-1.87-8-4.78-12-7.12-1.5-.87-2.87-2.53-4.91-1.15V327.94c1.72,1.24,3.17.14,4.61-.6,3.11-1.58,6.19-3.22,9.34-4.71,15.37-7.28,31.37-11.64,48.57-11.27,6.09.13,11.66,2.65,17.66,2.9a27.8,27.8,0,0,1,3.25-.24c16,6.2,28.73,16.71,38.63,30.73,5.5,7.81,10.69,15.89,13.71,25.1,3.79.71,7.36-1.3,11.12-.92a3.92,3.92,0,0,1,.6,0,10.94,10.94,0,0,1-.47,1.2c5.13,2.4,10.7,1.16,16,1.89a13.08,13.08,0,0,1,2.19-.67,82,82,0,0,1,35.47,22c10.57,11.19,18.16,24.33,23.94,38.5,3.67,9,7.21,18.1,7.19,28.08H342c1.17-1.29.94-2.77.54-4.24-4.76-17.33,2.44-30.54,14.69-41.78a116.58,116.58,0,0,1,50.23-27.64c15.71-4.05,31.55-4.51,47.28.37,1.68.53,3.37,1.69,5.18.32V164A167.41,167.41,0,0,1,390.84,169.73Z"/><path class="cls-2" d="M443.92.08c4.5,0,9,.15,13.49-.06,2.16-.1,2.59.41,2.57,2.56-.13,13.83-.07,27.66-.07,41.48V164c-1.51,2-3.71,2.75-6,3.28-35.06,8.08-69.67,8.28-102.86-7.56-28.33-13.52-45.1-35.93-49.28-67.32-.39-2.94-.66-6,.55-8.85,2.05-1.9,3.72-.33,5.25.75,16.31,11.44,33.67,11.76,51.77,5.11C377.66,82.69,392,70.5,404.83,56.29a242.53,242.53,0,0,0,26.08-35.23c2.89-4.67,5.17-9.68,7.76-14.52C440,4.05,441.22,1.47,443.92.08Z"/><path class="cls-3" d="M122.14.08c2.76,7.6,7,14.57,8.5,22.73,3,15.8,1.72,30.91-5.14,45.55C114.54,91.74,97,109,74.67,121.07c-20.55,11.17-41.83,11.28-62.77.24C7.85,119.18,4.51,115.83.22,114,.22,77.22.26,40.4.13,3.58.12.6.73,0,3.71,0,43.19.13,82.66.08,122.14.08Z"/><path class="cls-4" d="M147.11,368.93c5.51,2.07,11.47.29,17,2,7.11-.05,13.24,3.14,19,6.55,18.26,10.75,30.37,27,39.45,45.72a125.44,125.44,0,0,1,10.09,28.61c.58,2.74,1.5,5.55-.65,8.09q-113.43,0-226.88.12c-4.28,0-5.7-.95-5-5.14a37.13,37.13,0,0,0,.06-6,5,5,0,0,1,2.55-1.49c15.61-2.77,26.82-12.83,37.58-23.26C50.26,414.52,60,404.75,71.2,396.6c18-13.14,37.36-23.61,59.67-27.55a42.65,42.65,0,0,1,6-.58C140.25,368.8,143.8,366.31,147.11,368.93Z"/><path class="cls-5" d="M443.92.08c-8.1,15.42-16.55,30.62-27.3,44.4-13.27,17-28.06,32.45-47.53,42.35-17.73,9-36.08,12-55.06,3.18-4-1.85-6.9-5.18-10.91-6.85-3-.6-4.71-3-6.5-5.15-9.93-11.65-15.72-25.32-19.07-40.1-2.17-9.57-2.58-19.32-2.4-29.1q-.06-4.36-.11-8.73Z"/><path class="cls-6" d="M136,369.85C119.25,371.32,104.36,378,89.88,386,68,398,51,415.87,33,432.62,23.81,441.18,13.39,448,.22,448.89V327.94c13.33-7,26.86-13.28,41.87-16.24,13.2-2.6,26-1.77,38.88,1.33,9.27,1,16.85,5.78,23.84,11.4,13.55,10.9,23.48,24.68,30.72,40.43C136.24,366.41,137.67,368,136,369.85Z"/><path class="cls-3" d="M342,459.88c-1.16-6.27-3.1-12.32-2.15-19a38.71,38.71,0,0,1,9-20.18C365.61,401.21,387.1,389,412,383.64c16-3.47,32.32-3.23,47.91,3.27,0,23.16-.07,46.32.09,69.47,0,3-.6,3.59-3.58,3.58C418.27,459.84,380.13,459.88,342,459.88Z"/><path class="cls-7" d="M169.32,154.09c10.65,0,21.31.16,32-.09,3.61-.09,4.43,1.15,4.4,4.5-.11,17.48,0,35,0,52.43v6c4.33-2.39,6.49-6.22,9.24-9.29,15.17-16.91,30.1-34,45.14-51.06.94-1.07,1.58-2.55,3.44-2.55,14.73,0,29.47,0,45,0-3.84,6-9.49,9.29-12.56,14.75a12.9,12.9,0,0,1-2.63,4.18c-11.7,11.38-22,24-33.5,35.62-4.67,4.72-8.78,10-13.65,14.55-2,1.85-1.85,3.5-.23,5.62,1.8,2.34,4.28,4.26,5,7.34,6.62,8,13.17,16,19.87,23.91,11.95,14.12,24,28.16,36,42.25,1.6,1.88,2.68,4.43,1.52,6.43-1.56,2.65-4.85.57-7.24,1.36-1.47,1.47-3.38,1.23-5.17,1.24-9.13,0-18.26,0-27.4,0a9.72,9.72,0,0,1-8.22-3.71c-17.81-21.65-35-43.79-52.85-65.35,0,5,.46,10.1-.48,15.18-.55,15.61-1.75,31.19-1.41,46.82.15,6.74-.42,7.27-7.33,7.35-8,.09-16,.21-24-.07-5-.18-5.63-.94-5.63-6q0-73.63,0-147.28C168.64,156.94,168.07,155.35,169.32,154.09Z"/></g></g></svg>