<svg xmlns="http://www.w3.org/2000/svg" xmlns:xlink="http://www.w3.org/1999/xlink" viewBox="0 0 946.83 215.86"><defs><style>.cls-1{fill:#474747;}.cls-2{fill:url(#Dégradé_sans_nom_9);}</style><linearGradient id="Dégradé_sans_nom_9" x1="184.8" y1="188.56" x2="738.21" y2="188.56" gradientUnits="userSpaceOnUse"><stop offset="0" stop-color="#ffb645"/><stop offset="1" stop-color="#f84717"/></linearGradient></defs><g id="Calque_2" data-name="Calque 2"><g id="Calque_1-2" data-name="Calque 1"><path class="cls-1" d="M946.83,137.71c-8.52,2-17.15.62-25.72.75-2.89,0-2.16-2.83-2.16-4.69q-.06-24.11,0-48.21c0-5.26-1.24-10-5.49-13.59C908.07,67.39,902,67.64,896,69.59c-5.55,1.8-8.49,6.07-9.17,12.06-2,17-.56,34-.76,51-.06,4.87-1.48,6.36-6.24,6-5.8-.38-11.64-.21-17.46,0-3.15.09-4.45-.89-4.44-4.23q.14-43.23,0-86.47c0-3.31,1.22-3.8,4.06-3.71,5.65.19,11.31.06,17,.06,6.78,0,6.78,0,7.27,7.3,14.19-12.28,29.37-13.51,45.16-4.32C939.56,52.08,944,59.82,945.88,69c1.11,1.54-.28,3.55,1,5.07Z"/><path class="cls-1" d="M422.35,49.65c17.86-15.26,41.07-10.37,48.79,2.15a34.86,34.86,0,0,1,21.7-11.21A36.48,36.48,0,0,1,516.76,45c9.88,5.58,15.3,14.6,16.51,25.61,2.25,20.56.67,41.25,1.17,61.87.09,3.8-1.27,4.89-4.9,4.77-6.48-.23-13-.25-19.46,0-3.82.15-4.78-1.33-4.74-4.93.16-16.23.08-32.46.06-48.69a22.09,22.09,0,0,0-.83-6.26c-2.13-7.42-6.91-11.71-13.27-10.57-8.49,1.53-12.56,5.91-12.74,14.14-.37,16.88-.25,33.78,0,50.67.06,4.29-1.06,5.93-5.56,5.66a177.41,177.41,0,0,0-18.45,0c-3.93.18-5.18-1.06-5.14-5.06.21-17.39.08-34.78.09-52.17,0-7.39-4-12.34-12.67-13.21-7-.7-12.42,4.63-13.33,12.08-2.14,17.63-.5,35.31-.86,52.95-.09,4-1,5.64-5.31,5.41-6.3-.33-12.64-.15-19-.06-2.73,0-3.85-.93-3.84-3.76q.11-43.73,0-87.45c0-2.76,1-3.28,3.46-3.22,6,.15,12,.28,18,0C420.33,42.55,423.94,42.59,422.35,49.65Z"/><path class="cls-1" d="M698.74,69.7c-10.31,0-19.63-.1-28.94.06-2.76,0-3.75-.66-3.66-3.55.21-6.62.14-13.25,0-19.88,0-2.32.22-3.56,3.13-3.54q32.44.18,64.89,0c3.25,0,3.4,1.63,3.95,4.24,2.81,13.29-5.41,22.07-12.35,31.47-7.35,10-14.57,20-22.5,31,10.84,0,20.58.21,30.3-.1,4.43-.14,5.86,1.25,5.61,5.63-.34,6.11-.17,12.26-.05,18.38.06,2.76-.93,3.88-3.75,3.87q-33.69-.08-67.39,0c-2.74,0-3.92-.94-3.83-3.77.14-4.8-.11-9.62.08-14.41.18-4.62,4.11-7.17,6.48-10.53C679.75,95.76,689,83.16,698.74,69.7Z"/><path class="cls-1" d="M230.76,68.3c0-21.37.06-42.74-.07-64.1,0-3.1.6-4.33,4-4.19,7,.28,14,.18,20.95,0,3-.06,4.1,1,4.09,4.06q-.09,64.1,0,128.2c0,3.29-.94,5.15-4.81,5-6.48-.25-13-.25-19.46,0-3.79.15-4.8-1.27-4.77-4.91C230.83,111,230.76,89.66,230.76,68.3Z"/><path class="cls-1" d="M99.44,77.76c-2.3-11.52-8.5-21.08-17.62-28.48A41.23,41.23,0,0,0,52.74,40.1c-8.8.49-16.78,3.37-23.47,9.72-.71-7-.71-7-7.73-7-6.15,0-12.31.1-18.46-.06C.66,42.74,0,43.53,0,45.89Q.11,108.24,0,170.6C0,173.16.66,174,3.33,174c6.15-.2,12.31-.07,18.47-.07,7.1,0,7.1,0,7.1-7.07,0-12.32,0-24.64,0-37.42,14.42,12.86,34.16,12,46.91,4.88C97,122.41,103.62,98.7,99.44,77.76Zm-49,33.91C38.63,112,28.37,103.77,28.9,90c-.24-14,8.6-21.69,20.49-22.2C63.55,67.17,71.66,77,71.83,89.25,72,102.65,64,111.31,50.48,111.67Z"/><path class="cls-1" d="M648.27,46.8c0-3.09-1.2-4.06-4.15-4-6.16.14-12.33.3-18.47,0-5-.27-8.71.19-7.13,7.61-7.73-7.79-16.68-10.47-26.07-10.36-17.2.22-30.49,8.32-38.76,23.21-8,14.5-9.68,30-3.31,45.73,5.71,14.13,15.13,24.47,30.45,28.49,12.59,3.3,24.42,2.18,35.06-6a8.48,8.48,0,0,1,2.46-.78c-.08,3-.32,6.33,3.65,6.45,7.65.23,15.31.16,23,0,2-.05,3.34-1.16,3.33-3.82Q648.14,90.06,648.27,46.8Zm-50.93,65A21.47,21.47,0,0,1,576.09,91c-.65-16,10-22.92,21-23.29,12-.4,22.3,8.27,21.25,22.26C619.76,103.12,607.43,112.07,597.34,111.83Z"/><path class="cls-1" d="M211.81,46.58c0-2.81-1.11-3.82-3.86-3.76-5.82.11-11.65,0-17.47,0-7.2,0-7.2,0-8.15,7.14-9.8-7-10.13-6.87-20.94-9.34-14.22-3.24-32.44,6.08-40.48,17-13.78,18.64-13.54,46.7,0,64,11.34,14.51,29.44,21.14,47.52,15.91,5.24-1.51,9-5.43,14.83-7.56-2.26,7.13,1.61,7.49,6.47,7.28,5.65-.24,11.33-.25,17,0,3.64.17,5.11-1.2,5.11-4.72Q211.76,89.58,211.81,46.58Zm-51.09,65.06c-13.5,0-20.52-8.4-21-23.73-.31-10.8,9.56-20.61,21.36-20.22,13.7.45,21.49,9.06,21.46,21.89C182.56,102.64,174.85,111.62,160.72,111.64Z"/><path class="cls-1" d="M374.66,46.5c0-3.27-1.12-3.8-4-3.71-6.15.2-12.33.36-18.47,0-5.09-.33-7.81.91-6.16,7.74A37.08,37.08,0,0,0,317.92,40c-17.37.65-30.21,9.47-38.14,24.71s-8.29,30.94-1.61,46.52c7.45,17.35,22.35,28.52,42.4,28,9.29-.24,17.86-2.82,24.83-9.89.42,7.84.42,7.84,7.86,7.84,5.66,0,11.32-.11,17,.05,3.16.09,4.42-.9,4.4-4.25Q374.48,89.76,374.66,46.5Zm-50.74,65.2c-12.79-.35-21.29-8.92-21.24-22.12.05-12.76,9-22,22.19-21.92a20.77,20.77,0,0,1,20.74,22C346.2,103.3,336.31,112,323.92,111.7Z"/><path class="cls-1" d="M794.49,40.14c-29.2.15-49.91,20.51-49.93,49.41,0,28.47,20,49.49,49.72,49.6,28,.09,49.19-21,49.7-49C843.75,61.16,822.37,40,794.49,40.14Zm-.35,71c-10.08.12-20.54-6.06-20.23-22.28C774.16,76,784,68.27,794.51,68.7c12.34,0,20.56,8.37,20.5,21C814.93,103.65,805.84,111,794.14,111.16Z"/><polygon class="cls-2" points="711.72 161.25 711.72 191.18 211.29 191.18 211.29 161.25 184.8 161.25 184.8 215.86 738.21 215.86 738.21 161.25 711.72 161.25"/></g></g></svg>