<svg xmlns="http://www.w3.org/2000/svg" viewBox="0 0 1064.19 297.15"><defs><style>.cls-1{fill:#7f47fd;}</style></defs><g id="Calque_2" data-name="Calque 2"><g id="Calque_1-2" data-name="Calque 1"><path class="cls-1" d="M153.15,104.59c-2.62-25.25-5.62-50.28-16.81-73.49-1.09-2.24-2.17-5.38-4.94-5.48-3.33-.12-4.1,3.5-5.34,5.85A106,106,0,0,0,116.27,60c-1,5.12-3.09,5.89-7.63,4.7C89,59.58,90.72,65.18,96,44.36c2.72-10.72,6.66-21,13-30.28,12.91-19,32.43-18.75,45,.56,9,13.85,12.95,29.59,16.45,45.43,4.62,20.93,6.22,42.23,7.7,63.54.4,5.81-.76,10.89-5.94,14.09s-10.2,1.63-15.15-1.43c-29.87-18.45-61-34.39-94.58-44.92C51.93,88,41.24,85.19,30,85.54c-6.49.2-7.1,1.28-3.84,7,5.54,9.71,13.35,17.55,21.46,25,3,2.79,3.52,4.57.58,8-12.36,14.25-12.28,14.4-25.39.82-8.36-8.64-16.21-17.7-20.46-29.19-7-19.13,3-33.94,23.35-35.14,18-1.06,34.93,3.78,51.67,9.35,23.69,7.89,46.12,18.69,68.08,30.49C147.65,103.07,149.56,105.12,153.15,104.59Z"/><path class="cls-1" d="M83,151.08c-21.7,16.07-42.63,31.18-56.8,53.47-3.75,5.91-2.91,7,4.27,7.11,11,.22,21.46-2.49,31.74-5.83,4.44-1.45,6.67-.66,7.77,3.72.23.91.55,1.8.8,2.7,4.74,16.67,8.42,13.45-10.68,18.72-10.86,3-22,4.88-33.44,4.26C4.43,234-5.78,218,3.32,197.6c7.07-15.81,19.37-27.58,32-38.93,15.57-14,32.52-26.25,50.07-37.69,5.2-3.39,10.44-5.68,16.4-2.19,5.73,3.35,6,8.89,5.88,14.79-.88,37.21,1,74.19,10.35,110.44a96.79,96.79,0,0,0,8.71,23c3.73,6.69,5.37,6.68,9.2-.15,5.35-9.51,8.39-19.9,10.48-30.51.87-4.41,2.38-5.11,6.57-4.12,21.45,5.06,18.55.35,13.45,21a95.72,95.72,0,0,1-12.24,29.1c-12.42,19.32-32.31,19.8-45,.78-11.9-17.83-15.82-38.45-19.5-59.05-4.06-22.72-4.91-45.73-6-68.72C83.59,154.48,83.38,153.57,83,151.08Z"/><path class="cls-1" d="M158.06,189.28c20.49,9.65,40.84,17.41,62.42,21.61a29.62,29.62,0,0,0,7,.63c3.58-.17,8.59,2,10.31-1.7,1.52-3.26-2.16-6.85-4.29-9.85a120.59,120.59,0,0,0-18.9-20.83c-3-2.64-3.3-4.69-.41-7.44,2-1.94,3.8-4.15,5.72-6.22,7-7.54,7.05-7.57,14.65,0,9.17,9.13,18,18.54,23.85,30.3,10.44,20.94.63,38-22.65,39.34-15.8.92-30.81-3-45.61-7.69-21.1-6.69-41.24-15.72-60.9-25.84-5.18-2.67-8.88-6.14-8.89-12.36,0-5.91,3.49-9.36,8.36-12,29.61-16,57.86-34.11,83.05-56.62,9.3-8.31,18.24-17,24.49-28,3.47-6.09,2.82-7-4.32-7.12-11-.24-21.4,2.76-31.74,5.82-4.26,1.26-6.82,1.09-7.5-3.83a16.34,16.34,0,0,0-.85-2.68C187.21,70,187.2,70,202.58,66.13c11.43-2.87,22.95-4.87,34.84-4.07,20,1.34,30.21,17.11,22.62,35.65-5.74,14-16,24.8-26.67,35.09-19.91,19.13-42.37,34.91-65.81,49.37-2.6,1.61-5.15,3.27-7.69,5A13.64,13.64,0,0,0,158.06,189.28Z"/><path class="cls-1" d="M579.93,153.47c9.41-11.83,15.58-26.14,33.79-18.67-4.11,5.09-8.08,10.47-12.55,15.4-2.93,3.23-2.77,5.7-.41,9.14,5,7.32,9.64,14.93,14.87,23.13-6.13,1.32-11.64.48-17.08.69-2.34.09-3.17-1.74-4.15-3.3-2.11-3.38-4.07-6.86-6.28-10.18-.93-1.4-1.49-4.05-4-2.93-2,.92-4.27,2.12-4.16,5.07.07,2.11-.24,4.25,0,6.33.46,4.08-1.28,5.21-5.21,5.11-14.88-.39-11.83,1.64-12-11.69-.21-16.66.15-33.34-.17-50-.1-5.45,1.38-7.4,7-7.17,12.25.49,10.12-.8,10.26,10C580,133.35,579.93,142.25,579.93,153.47Z"/><path class="cls-1" d="M746.48,139.63c5.28-6.09,11.41-7.84,18.34-7.09,7.71.84,13.16,5.65,14.21,13.38,1.52,11.2.47,22.52.66,33.78,0,2.21-.92,3.16-3.29,3.54-12.33,2-14.13.55-14.16-11.76,0-6.11,0-12.21-.19-18.32-.11-3.49-1.19-6.63-5.46-6.92s-6.49,2-7.47,5.94c-2,8.12-1.19,16.39-1,24.56.14,5.41-1.63,7.22-6.79,6.5a31.23,31.23,0,0,0-6.34,0c-3,.2-4.2-.87-4.18-4,.12-13.86,0-27.71.07-41.57,0-1.85-.22-4.25,2.51-4.08,3.77.23,8.07-2,11.16,1.92C745.27,136.35,745.54,137.55,746.48,139.63Z"/><path class="cls-1" d="M894.71,159.22c0,5.87.16,11.74-.09,17.59-.09,2.2,1.61,6.11-2.35,6.12-3.79,0-8.88,2.77-11.31-2.38-1.63-3.48-2.59-2.65-4.88-.79-6.47,5.24-13.81,5.65-21.16,2.33s-8.74-9.89-8.75-17.06c0-8.67.23-17.36,0-26-.12-4.27,1.3-6.12,5.62-5.64a16.48,16.48,0,0,0,4.21,0c5.66-.8,8,1.12,7.58,7.23-.52,7-.13,14.06-.06,21.09,0,3.92.53,8,5.31,8.62,5.34.64,7.36-3.27,8.15-7.79,1.3-7.44.78-15,.53-22.46-.18-5.18,1.25-7,6.63-6.77,12.68.47,10.31-.8,10.57,10.48,0,2.57,0,5.15,0,7.73S894.72,156.64,894.71,159.22Z"/><path class="cls-1" d="M436.48,177c-4,4-8,6.3-12.85,6.9-11.65,1.43-19.8-5.28-20.05-17-.2-9.38.14-18.77-.17-28.14-.15-4.5,1.68-5.9,5.76-5.4a5.61,5.61,0,0,0,.71,0c12.9.11,10.46-.88,10.68,10.23.12,6.1-.13,12.21.13,18.3.17,3.77.72,8,5.64,8.41,5.41.44,7.62-3.58,7.95-8a208.3,208.3,0,0,0,.37-22.49c-.16-4.77,1.18-7.07,6.25-6.47a31.14,31.14,0,0,0,6.33,0c4.5-.41,4.81,2.32,4.79,5.74-.07,12.67.07,25.33-.07,38,0,2.22,1.34,6.15-2.77,5.85-3.72-.27-8.62,3-11.12-2.68C437.69,179.44,437.26,178.63,436.48,177Z"/><path class="cls-1" d="M662.91,149.38c0,9.14-.19,18.28.09,27.4.14,4.63-.88,6.76-6.13,6.53-13.32-.6-11.39,2-11.52-11.6-.16-16.86.4-33.74-.11-50.58-.26-8.48,5.12-6.31,9.69-6.67,5.06-.4,8.51.08,8.1,6.83-.57,9.33-.15,18.72-.15,28.09Z"/><path class="cls-1" d="M536.65,140.3c3.63-3.61,7.33-7.55,13.17-7.86,3.91-.22,6.61.45,5.41,5.35a15.86,15.86,0,0,0-.52,4.88c.38,4.78-1.42,6.36-6.4,6.29-8.13-.11-10.56,2.88-10.66,11.32-.07,5.63-.39,11.28,0,16.87.39,5.14-1.64,6.33-6.4,6.13-12.52-.53-10.8,1.81-10.93-10.71-.11-11-.06-22,.09-33.06,0-2.26-1.26-6,2.8-5.88,3.76.1,8.66-2.71,11,3C534.79,137.87,534.6,139.55,536.65,140.3Z"/><path class="cls-1" d="M381.53,183.36c-1.26-1.46-2.64-2.65-.2-4.49,11-8.25,12-20.15,11.24-32.4-1.09-18.29-11.23-28-29.16-28.5-19.68-.54-30.85,8.51-33,26.95a56.16,56.16,0,0,0,0,12c1.42,14,9.4,24.52,21.76,25.95,8,.92,12.74,4.61,16.88,10.63,1.64,2.39,3,5.33,6.9,5.19,5.59-.19,11.18,0,18.67,0C389.44,192.56,385.49,188,381.53,183.36Zm-8.28-22.81c-1.6,5.89-5.55,8.89-11.87,8.84-6-.06-9.71-3-11.44-8.53a33.16,33.16,0,0,1-.17-19.38c1.77-6.2,5.69-9.37,12.31-9.24,6.46.13,9.87,3.82,11.37,9.54.76,2.9.75,6,1.13,9.35C374.18,154.1,374.09,157.43,373.25,160.55Z"/><path class="cls-1" d="M995,171.71c-1.88-.09-3.78.06-5.63-.17-3.94-.48-10.19,1.62-10.9-2.86-.46-2.92,6.24-1.52,9.67-2.06,11.81-1.86,17-7.54,16.08-19.5-.29-3.58,1.59-3.91,3.63-4.71,3.46-1.36,2.3-4.25,2.22-6.62-.1-2.75-2.5-2.28-4.27-2.37-7.5-.36-15-.83-22.51-.93-8.33-.1-16.41,1.4-20.08,10-3.47,8.16-1.53,15.65,5.65,21.33-6.86,6.73-7,8.06-1.43,15.75-7.82,4.26-9.23,6.13-9.36,11.56-.12,4.74,2.11,8,6.06,10.33,9.36,5.48,30.54,4,39.12-2.7a16.64,16.64,0,0,0,5.58-18.33C1006.61,173.82,1001.24,172,995,171.71Zm-17.12-22.22c.06-3.7.75-7.34,5.54-7.23,4.59.1,4.46,3.89,4.85,6.67-.19,4-.28,8.09-5.09,8.08C978.58,157,977.79,153.22,977.85,149.49ZM983.72,194c-4.28.51-10.76,1-10.74-4.64,0-5.85,6.61-4.19,10.81-4.71,3.8.53,10-1,10.26,3.55C994.43,193.87,987.85,193.53,983.72,194Z"/><path class="cls-1" d="M823.93,171.74c-3-.15-6.1,0-9.14-.19s-8.27.6-8.3-2.84,5-1.61,7.65-1.85c13.63-1.25,18.26-5.9,18.48-20,0-2.91,1.56-3.59,3.49-4.36,3.37-1.34,2.45-4.22,2.26-6.62-.25-3.16-3-2.36-4.92-2.46-7.25-.39-14.51-.86-21.77-.93-8.32-.07-16.19,1.54-20,10.09-3.74,8.35-1.09,15.51,5.57,21.32-6.88,7-7,8-1,15.82-13.16,4.4-11,17.05-4.36,21.37,9.56,6.23,33.22,4.37,41.32-3.54,5-4.9,6.26-10.88,4.08-17.43C835.14,173.84,829.93,172,823.93,171.74Zm-17.31-21.81c0-3.51,0-7.54,5-7.63s4.94,3.94,5.44,6.84c-.27,4.26-.9,8-5.58,7.9C807.14,157,806.57,153.34,806.62,149.93Zm13.94,41.89c-3,2-6.58,2.12-10.52,2.59-1.63-.35-3.68-.68-5.68-1.23a3.75,3.75,0,0,1-3-3.44c-.19-2.24,1.19-3.52,3.09-4.07a26.14,26.14,0,0,1,15.78.09C824.28,187.12,823.54,189.85,820.56,191.82Z"/><path class="cls-1" d="M719.34,174.18c.42-3.23.1-6.55.1-9.83h-.1c0-4.93.28-9.87-.05-14.77-.69-10-6.45-15.92-16.42-17A47.36,47.36,0,0,0,682.06,135c-2.12.75-6.07,1-3.5,4.79,1.89,2.8.37,9.79,7.59,6.89a23.69,23.69,0,0,1,11-1.79c2.76.23,4.48,1.74,4.4,4.47s-2.61,2.16-4.31,2.28c-5.15.35-10.34.32-15.25,2.23-7.55,2.94-11.08,9.29-9.66,17.4s6.17,12.4,14.36,12.77c5.3.24,10.28-.83,14.33-4.6,1.42-1.32,3.07-3,4.27-.07,2.61,6.33,8.14,4.19,12.07,3.37C721.51,181.86,719,177.15,719.34,174.18Zm-24.47-2.32c-3,.2-5-1.28-5-4.47,0-5.55,4.48-5.65,7.54-6.38,3.17-.33,5,.25,4.79,3.18C702,168.8,699.53,171.54,694.87,171.86Z"/><path class="cls-1" d="M1045.86,132.79c-14.9-2.74-27.32,4.45-29.57,17.9-1.74,10.42-1.73,21.15,8,28.18,10.23,7.39,21.79,6.37,33.09,2.72,5.33-1.72,3.35-6.9,2.79-10.39-.72-4.57-4-1.06-6.08-.76-3.71.55-7.35,1.6-11.16,1.34-3.15-.22-6-1.12-8.06-3.69-.85-1.08-1.86-2.33-1.35-3.8.6-1.73,2.33-1.21,3.62-1.24,3.52-.1,7,0,10.57,0v0c4,0,8,0,12,0,2.38,0,3.74-.61,4.15-3.46C1065.82,146,1058.62,135.13,1045.86,132.79Zm-5.43,19.79c-2.06-1.64-6.37,1.94-6.47-2.78-.08-3.72,3.12-5.61,6.68-5.69s6.89,1.93,6.8,5.53C1047.32,154.79,1042.65,150.86,1040.43,152.58Z"/><path class="cls-1" d="M508.17,175.51c.28-4,.07-8,.07-11.94h-.08c0-4.69.17-9.38,0-14-.41-9.27-5.05-14.83-14.19-16.54-8-1.49-15.85-.31-23.55,2.18-3.15,1-4.5,2.81-2.39,5.63,1.82,2.43.49,8.64,6.89,6a22.77,22.77,0,0,1,11.67-1.88c2.38.32,4.07,1.7,4.25,4,.25,3.41-2.7,2.55-4.55,2.69-5.37.41-10.8.32-15.89,2.48q-11.06,4.68-8.88,17.82c1.16,7,6.09,11.49,13.51,12,5.52.4,10.8-.49,15-4.51,1.77-1.69,3.29-2.78,4.65.33,2.57,5.83,7.81,3.57,11.66,3C509.77,182.2,508,178.05,508.17,175.51Zm-17.06-10.78c-.29,4.48-2.83,6.71-7,7.11-2.94.28-5.18-1.22-5.22-4.26-.08-5.34,4.16-5.94,8.1-6.64C490,160.48,491.31,161.61,491.11,164.73Z"/><path class="cls-1" d="M951.21,177.11c.23-4.67.08-9.37.08-14.05h0c0-4.22.11-8.44,0-12.65-.34-10.51-5.8-16.65-16.12-17.78a49.43,49.43,0,0,0-20.82,2.27c-2.89.95-5.76,2-3.33,5.73,1.77,2.72.74,9.11,7.44,6.06a21.43,21.43,0,0,1,10.29-1.87c2.89.19,5.26,1.46,5.13,4.57s-3.15,2.09-5,2.24c-5.13.41-10.32.3-15.18,2.41-5.34,2.31-8.85,6-9.24,12.1-.41,6.43.59,12.42,6.81,15.75,6.74,3.61,13.67,3,20-1,2.94-1.86,4.7-5,7.57.52,2,3.81,6.9,1.89,10.4,1.54S951.12,179.17,951.21,177.11Zm-17.06-12.23c-.33,4.34-2.84,6.7-7.08,7-3.32.2-5.51-1.64-5.09-5,.63-5.13,4.95-5.44,8.89-5.9C933.83,160.56,934.36,162.43,934.15,164.88Z"/></g></g></svg>